<svg width="28" height="28" viewBox="0 0 28 28" fill="none" xmlns="http://www.w3.org/2000/svg">
<path fill-rule="evenodd" clip-rule="evenodd" d="M23.3816 3.46989L10.9818 25.9655C10.63 26.6037 9.95895 27 9.23023 27H8.35235C6.78131 27 5.82366 25.2718 6.65655 23.9397L20.5104 1.78265C20.5693 1.68838 20.6179 1.60128 20.662 1.52209C20.8458 1.19232 20.9529 1 21.416 1C22.6837 1 23.9936 2.35971 23.3816 3.46989ZM4.97674 10.0403L6.87792 14L8.7791 10.0403L12.2558 7.875L8.7791 5.70972L6.87792 1.75L4.97674 5.70972L1.5 7.875L4.97674 10.0403ZM6.21618 8.63165L5.003 7.875L6.21618 7.11835L6.88055 5.73663L7.54491 7.11835L8.75809 7.875L7.54491 8.63165L6.88055 10.0134L6.21618 8.63165ZM26 16L24 16.5985L22 16L22.5885 17.9529L22 20L24 19.3977L26 20L25.4153 17.9529L26 16ZM14 2.5985L16 2L15.4153 3.95289L16 6L14 5.39769L12 6L12.5885 3.95289L12 2L14 2.5985Z" fill="url(#paint0_linear_36_209)"/>
<defs>
<linearGradient id="paint0_linear_36_209" x1="14.7434" y1="1" x2="14.7434" y2="27" gradientUnits="userSpaceOnUse">
<stop stop-color="#C98FF7"/>
<stop offset="0.485" stop-color="#5A6FE9"/>
<stop offset="1" stop-color="#73A1FF"/>
</linearGradient>
</defs>
</svg>
