<svg width="24" height="24" viewBox="0 0 24 24" fill="none" xmlns="http://www.w3.org/2000/svg">
<path d="M23.3293 0.670387C24.2232 1.56427 24.2232 3.01354 23.3293 3.90742L15.2368 12L23.3293 20.0926C24.2232 20.9865 24.2232 22.4357 23.3293 23.3296C22.4355 24.2235 20.9862 24.2235 20.0923 23.3296L11.9997 15.237L3.90715 23.3296C3.01327 24.2235 1.564 24.2235 0.670118 23.3296C-0.223763 22.4357 -0.223764 20.9865 0.670118 20.0926L8.7627 12L0.670117 3.90742C-0.223765 3.01354 -0.223763 1.56427 0.670118 0.670387C1.564 -0.223495 3.01327 -0.223495 3.90715 0.670386L11.9997 8.76297L20.0923 0.670385C20.9862 -0.223496 22.4355 -0.223495 23.3293 0.670387Z" fill="#FF5E5E"/>
</svg>
