<svg width="25" height="26" viewBox="0 0 25 26" fill="none" xmlns="http://www.w3.org/2000/svg">
<path fill-rule="evenodd" clip-rule="evenodd" d="M21.8816 2.46989L9.48176 24.9655C9.12999 25.6037 8.45895 26 7.73023 26H6.85235C5.28131 26 4.32366 24.2718 5.15655 22.9397L19.0104 0.782652C19.0693 0.688381 19.1179 0.601275 19.162 0.522094C19.3458 0.192319 19.4529 0 19.916 0C21.1837 0 22.4936 1.35971 21.8816 2.46989ZM3.47674 9.04028L5.37792 13L7.2791 9.04028L10.7558 6.875L7.2791 4.70972L5.37792 0.75L3.47674 4.70972L0 6.875L3.47674 9.04028ZM4.71618 7.63165L3.503 6.875L4.71618 6.11835L5.38055 4.73663L6.04491 6.11835L7.25809 6.875L6.04491 7.63165L5.38055 9.01337L4.71618 7.63165ZM24.5 15L22.5 15.5985L20.5 15L21.0885 16.9529L20.5 19L22.5 18.3977L24.5 19L23.9153 16.9529L24.5 15ZM12.5 1.5985L14.5 1L13.9153 2.95289L14.5 5L12.5 4.39769L10.5 5L11.0885 2.95289L10.5 1L12.5 1.5985Z" fill="url(#paint0_linear_0_4)"/>
<defs>
<linearGradient id="paint0_linear_0_4" x1="13.2434" y1="0" x2="13.2434" y2="26" gradientUnits="userSpaceOnUse">
<stop stop-color="#C98FF7"/>
<stop offset="0.485" stop-color="#5A6FE9"/>
<stop offset="1" stop-color="#73A1FF"/>
</linearGradient>
</defs>
</svg>
